<svg width="1280" height="640" viewBox="0 0 1280 640" fill="none" xmlns="http://www.w3.org/2000/svg">
  <defs>
    <linearGradient id="bg" x1="80" y1="40" x2="1180" y2="620" gradientUnits="userSpaceOnUse">
      <stop stop-color="#07111F"/>
      <stop offset="0.5" stop-color="#0C1730"/>
      <stop offset="1" stop-color="#101E3F"/>
    </linearGradient>
    <radialGradient id="glowA" cx="0" cy="0" r="1" gradientUnits="userSpaceOnUse" gradientTransform="translate(280 140) rotate(22) scale(320 240)">
      <stop stop-color="#41B5FF" stop-opacity="0.44"/>
      <stop offset="1" stop-color="#41B5FF" stop-opacity="0"/>
    </radialGradient>
    <radialGradient id="glowB" cx="0" cy="0" r="1" gradientUnits="userSpaceOnUse" gradientTransform="translate(1010 520) rotate(-12) scale(340 220)">
      <stop stop-color="#18D3A9" stop-opacity="0.26"/>
      <stop offset="1" stop-color="#18D3A9" stop-opacity="0"/>
    </radialGradient>
    <linearGradient id="chip" x1="0" y1="0" x2="214" y2="70" gradientUnits="userSpaceOnUse">
      <stop stop-color="#59B7FF"/>
      <stop offset="1" stop-color="#2A86FF"/>
    </linearGradient>
    <filter id="blurSoft" x="-80" y="-80" width="1440" height="800" filterUnits="userSpaceOnUse" color-interpolation-filters="sRGB">
      <feGaussianBlur stdDeviation="24"/>
    </filter>
    <filter id="shadow" x="340" y="86" width="613" height="450" filterUnits="userSpaceOnUse" color-interpolation-filters="sRGB">
      <feDropShadow dx="0" dy="20" stdDeviation="28" flood-color="#020817" flood-opacity="0.45"/>
    </filter>
  </defs>

  <rect width="1280" height="640" rx="28" fill="url(#bg)"/>
  <rect width="1280" height="640" rx="28" fill="url(#glowA)"/>
  <rect width="1280" height="640" rx="28" fill="url(#glowB)"/>

  <g opacity="0.2" filter="url(#blurSoft)">
    <circle cx="1087" cy="145" r="84" fill="#4FA8FF"/>
    <circle cx="930" cy="95" r="46" fill="#18D3A9"/>
    <circle cx="208" cy="525" r="92" fill="#2A86FF"/>
  </g>

  <rect x="64" y="58" width="1152" height="524" rx="30" fill="white" fill-opacity="0.03" stroke="white" stroke-opacity="0.08"/>

  <g filter="url(#shadow)">
    <rect x="420" y="126" width="453" height="370" rx="30" fill="#0B1327" stroke="white" stroke-opacity="0.12"/>
    <rect x="446" y="150" width="401" height="58" rx="22" fill="white" fill-opacity="0.05" stroke="white" stroke-opacity="0.08"/>
    <circle cx="479" cy="179" r="17" fill="url(#chip)"/>
    <rect x="510" y="166" width="142" height="10" rx="5" fill="white" fill-opacity="0.9"/>
    <rect x="510" y="184" width="188" height="8" rx="4" fill="#38D39F" fill-opacity="0.9"/>

    <rect x="446" y="228" width="240" height="66" rx="24" fill="white" fill-opacity="0.06" stroke="white" stroke-opacity="0.06"/>
    <rect x="464" y="245" width="98" height="8" rx="4" fill="white" fill-opacity="0.92"/>
    <rect x="464" y="262" width="172" height="8" rx="4" fill="white" fill-opacity="0.36"/>
    <rect x="464" y="278" width="74" height="7" rx="3.5" fill="white" fill-opacity="0.22"/>

    <rect x="560" y="310" width="264" height="78" rx="26" fill="#458DFF"/>
    <rect x="580" y="331" width="182" height="8" rx="4" fill="white" fill-opacity="0.96"/>
    <rect x="580" y="348" width="214" height="8" rx="4" fill="white" fill-opacity="0.5"/>
    <rect x="580" y="365" width="98" height="7" rx="3.5" fill="white" fill-opacity="0.34"/>

    <rect x="446" y="406" width="309" height="66" rx="24" fill="white" fill-opacity="0.06" stroke="white" stroke-opacity="0.06"/>
    <rect x="464" y="423" width="124" height="8" rx="4" fill="white" fill-opacity="0.92"/>
    <rect x="464" y="440" width="236" height="8" rx="4" fill="white" fill-opacity="0.36"/>
    <rect x="464" y="456" width="90" height="7" rx="3.5" fill="white" fill-opacity="0.22"/>
  </g>

  <g>
    <rect x="110" y="110" width="118" height="118" rx="34" fill="white" fill-opacity="0.08" stroke="white" stroke-opacity="0.1"/>
    <rect x="130" y="130" width="78" height="78" rx="24" fill="url(#chip)"/>
    <path d="M153 170.5L168.5 186L189.5 155" stroke="white" stroke-width="8" stroke-linecap="round" stroke-linejoin="round"/>
    <text x="110" y="274" fill="#63B4FF" font-family="Inter, Arial, sans-serif" font-size="18" font-weight="700" letter-spacing="0.28em">AURA</text>
  </g>

  <g>
    <text x="110" y="350" fill="white" font-family="Inter, Arial, sans-serif" font-size="68" font-weight="800">
      Premium AI Messaging
    </text>
    <text x="110" y="420" fill="#D8E4FF" font-family="Inter, Arial, sans-serif" font-size="68" font-weight="800">
      with Admin and Live Calls
    </text>
    <text x="110" y="480" fill="#A4B2CB" font-family="Inter, Arial, sans-serif" font-size="28" font-weight="500">
      Next.js • Realtime chat • WebRTC demo calls • Privacy-first UX • Moderation tooling
    </text>
  </g>

  <g>
    <rect x="110" y="520" width="214" height="70" rx="24" fill="white" fill-opacity="0.08" stroke="white" stroke-opacity="0.12"/>
    <text x="140" y="564" fill="white" font-family="Inter, Arial, sans-serif" font-size="22" font-weight="700">
      aura-messaging-platform
    </text>
  </g>
</svg>
